<?xml version="1.0" encoding="UTF-8" standalone="no"?>
<svg
   xmlns:dc="http://purl.org/dc/elements/1.1/"
   xmlns:cc="http://creativecommons.org/ns#"
   xmlns:rdf="http://www.w3.org/1999/02/22-rdf-syntax-ns#"
   xmlns:svg="http://www.w3.org/2000/svg"
   xmlns="http://www.w3.org/2000/svg"
   xmlns:sodipodi="http://sodipodi.sourceforge.net/DTD/sodipodi-0.dtd"
   xmlns:inkscape="http://www.inkscape.org/namespaces/inkscape"
   viewBox="0 0 50 50"
   enable-background="new 0 0 50 50"
   id="svg2"
   version="1.1"
   inkscape:version="0.91 r13725"
   sodipodi:docname="user.svg">
  <metadata
     id="metadata16">
    <rdf:RDF>
      <cc:Work
         rdf:about="">
        <dc:format>image/svg+xml</dc:format>
        <dc:type
           rdf:resource="http://purl.org/dc/dcmitype/StillImage" />
      </cc:Work>
    </rdf:RDF>
  </metadata>
  <defs
     id="defs14" />
  <sodipodi:namedview
     pagecolor="#ffffff"
     bordercolor="#666666"
     borderopacity="1"
     objecttolerance="10"
     gridtolerance="10"
     guidetolerance="10"
     inkscape:pageopacity="0"
     inkscape:pageshadow="2"
     inkscape:window-width="951"
     inkscape:window-height="1048"
     id="namedview12"
     showgrid="false"
     inkscape:zoom="5.12"
     inkscape:cx="11.643759"
     inkscape:cy="14.893451"
     inkscape:window-x="6"
     inkscape:window-y="26"
     inkscape:window-maximized="0"
     inkscape:current-layer="svg2" />
  <path
     d="M34 23h-2v-4c0-3.9-3.1-7-7-7s-7 3.1-7 7v4h-2v-4c0-5 4-9 9-9s9 4 9 9v4z"
     id="path4"
     style="fill:#d8dee9;fill-opacity:1" />
  <path
     d="M33 40H17c-1.7 0-3-1.3-3-3V25c0-1.7 1.3-3 3-3h16c1.7 0 3 1.3 3 3v12c0 1.7-1.3 3-3 3zM17 24c-.6 0-1 .4-1 1v12c0 .6.4 1 1 1h16c.6 0 1-.4 1-1V25c0-.6-.4-1-1-1H17z"
     id="path6"
     style="fill:#d8dee9;fill-opacity:1" />
  <circle
     cx="25"
     cy="28"
     r="2"
     id="circle8"
     style="fill:#d8dee9;fill-opacity:1" />
  <path
     d="M25.5 28h-1l-1 6h3z"
     id="path10"
     style="fill:#d8dee9;fill-opacity:1" />
</svg>
